<svg xmlns="http://www.w3.org/2000/svg"><symbol id="facebook" viewBox="0 0 256 256"><path fill="#fff" d="M87.6 128H55.4V74.4h32.2V42.2c0-16.9 2.7-31.1 9-42.2H17.1A17.1 17.1 0 0 0 0 17.1v221.8A17.1 17.1 0 0 0 17.1 256h70.5zM238.9 0h-38.6v26.1h-26.9c-20.1 0-21.4 7.5-21.4 21.5v26.8h48.6l-5.7 53.6h-43v128h87a17.1 17.1 0 0 0 17.1-17.1V17.1A17.1 17.1 0 0 0 238.9 0z"/></symbol><symbol id="twitter" viewBox="0 0 256 256"><path fill="#fff" d="M.3 241.8l1.2-1H.1c0 .3.1.6.2 1zM238.9 0H17.1A17.1 17.1 0 0 0 0 17.1v101.6a166 166 0 0 0 55.5 12.5 58.7 58.7 0 0 1 99.9-53.5 117.4 117.4 0 0 0 37.2-14.2 58.8 58.8 0 0 1-25.8 32.4 117.2 117.2 0 0 0 33.7-9.2 119.2 119.2 0 0 1-29.2 30.3q.2 3.8.2 7.6c0 47-21.7 98.3-62.7 131.4h130.1a17.1 17.1 0 0 0 17.1-17.1V17.1A17.1 17.1 0 0 0 238.9 0z"/></symbol><symbol id="logo" viewBox="0 0 256 214.8"><path d="M47.5 97.7a2.5 2.5 0 0 0-2.5-2.5H34.3a2.5 2.5 0 0 1-1.4-4.5l91.2-63.1a2.5 2.5 0 0 1 2.8 0l91.2 63.1a2.5 2.5 0 0 1-1.4 4.5H206a2.5 2.5 0 0 0-2.5 2.5V166C232 127.2 241.4 71.4 256 28.1 196.9 14.5 123.9-18.7 65.8 13.8s-82.3 99.9-53.9 150.7a94.3 94.3 0 0 0 35.6 35.8z"/><path d="M172.6 195.1v-74.5a2.4 2.4 0 0 0-2.2-2.6H80.6a2.4 2.4 0 0 0-2.2 2.6v91.5c28.5 6.2 60.7 1.8 90-14.5z"/></symbol></svg>